<svg width="40" height="40" viewBox="0 0 40 40" fill="none" xmlns="http://www.w3.org/2000/svg">
<path opacity="0.4" d="M19.6266 36.3957C15.8215 34.0455 12.2844 31.2742 9.07979 28.1327C6.81749 25.8896 5.08975 23.1508 4.02858 20.1254C2.13253 14.2254 4.33966 7.48247 10.5018 5.48066C13.7543 4.45922 17.2917 5.08626 20.0117 7.16639C22.7327 5.08858 26.2689 4.46175 29.5216 5.48066C35.6838 7.48247 37.9057 14.2254 36.0097 20.1254C34.9571 23.1479 33.2397 25.8865 30.9881 28.1327C27.7806 31.2708 24.2438 34.0418 20.4413 36.3957L20.0265 36.6667L19.6266 36.3957Z" fill="#F97010"/>
<path d="M20.0183 36.6667L19.6268 36.3958C15.817 34.0457 12.2749 31.2745 9.06519 28.1327C6.79217 25.8927 5.05414 23.1537 3.98436 20.1255C2.10312 14.2254 4.31025 7.48248 10.4724 5.48067C13.7249 4.45923 17.309 5.08675 20.0183 7.1843V36.6667Z" fill="#F97010"/>
<path d="M30.3844 16.6654C30.0496 16.6438 29.7378 16.4765 29.5221 16.2026C29.3064 15.9287 29.2056 15.5723 29.2435 15.2169C29.2798 14.0463 28.6137 12.9808 27.5865 12.5663C26.9352 12.3885 26.5408 11.6831 26.7037 10.9875C26.8583 10.303 27.4992 9.87745 28.1434 10.0315C28.2247 10.045 28.303 10.0745 28.3743 10.1184C30.4338 10.911 31.7672 13.044 31.6611 15.3763C31.6577 15.7298 31.5199 16.0666 31.2792 16.3097C31.0385 16.5527 30.7155 16.6811 30.3844 16.6654Z" fill="#F97010"/>
</svg>
