<svg width="98" height="42" viewBox="0 0 98 42" fill="none" xmlns="http://www.w3.org/2000/svg">
<path d="M89.6554 34.577C88.4896 34.577 87.5386 34.1168 86.8023 33.1965C86.0864 32.2761 85.7285 31.0694 85.7285 29.5764C85.7285 27.9402 86.1069 26.3961 86.8636 24.9439C87.6204 23.4714 88.6225 22.2953 89.8701 21.4159C91.1382 20.516 92.4778 20.066 93.889 20.066C94.339 20.066 94.6355 20.1581 94.7787 20.3421C94.9423 20.5058 95.0753 20.8126 95.1775 21.2625C95.5661 21.1807 95.9956 21.1398 96.466 21.1398C96.9569 21.1398 97.3352 21.2625 97.6011 21.5079C97.867 21.7534 97.9999 22.1011 97.9999 22.551C97.9999 23.0214 97.8977 23.8395 97.6932 25.0053C97.4682 26.2529 97.2943 27.4494 97.1716 28.5947C97.0489 29.7196 96.9876 30.9876 96.9876 32.3988C96.9876 33.176 96.8239 33.7385 96.4967 34.0861C96.1899 34.4134 95.6786 34.577 94.9628 34.577C94.2674 34.577 93.7458 34.4134 93.3982 34.0861C93.0709 33.7385 92.9073 33.1862 92.9073 32.4295L92.938 31.9386C92.304 33.6976 91.2098 34.577 89.6554 34.577ZM90.8518 31.4785C91.4245 31.4785 91.946 31.0796 92.4164 30.282C92.8869 29.4844 93.3061 28.0629 93.6743 26.0177L94.2572 22.9191C93.4186 22.9396 92.6414 23.2668 91.9256 23.9009C91.2098 24.5144 90.6371 25.3325 90.2076 26.3551C89.7781 27.3778 89.5633 28.4617 89.5633 29.6071C89.5633 30.2206 89.6758 30.6911 89.9008 31.0183C90.1462 31.3251 90.4632 31.4785 90.8518 31.4785Z" fill="#F97010"/>
<path d="M82.3168 34.5769C80.9874 34.5769 80.0159 34.1065 79.4024 33.1657C78.8093 32.2249 78.5127 30.9773 78.5127 29.4229C78.5127 28.5026 78.6252 27.3266 78.8502 25.8949C79.0956 24.4428 79.4024 23.0929 79.7705 21.8453C79.9546 21.1908 80.2 20.7409 80.5068 20.4955C80.8136 20.25 81.3044 20.1273 81.9794 20.1273C83.0224 20.1273 83.544 20.475 83.544 21.1704C83.544 21.6817 83.3497 22.8679 82.9611 24.7291C82.4702 26.9789 82.2248 28.5026 82.2248 29.3002C82.2248 29.9138 82.3066 30.3842 82.4702 30.7114C82.6339 31.0387 82.91 31.2023 83.2986 31.2023C83.6667 31.2023 84.1269 30.9466 84.6791 30.4353C85.2313 29.924 85.9676 29.1161 86.888 28.0117C87.1334 27.7254 87.4095 27.5822 87.7163 27.5822C87.9821 27.5822 88.1867 27.7049 88.3298 27.9504C88.4935 28.1958 88.5753 28.5333 88.5753 28.9628C88.5753 29.7808 88.381 30.4149 87.9924 30.8648C85.9676 33.3396 84.0757 34.5769 82.3168 34.5769Z" fill="#F97010"/>
<path d="M80.13 27.5824C80.3958 27.5824 80.6004 27.7051 80.7435 27.9505C80.9071 28.1959 80.989 28.5334 80.989 28.9629C80.989 29.781 80.7947 30.415 80.4061 30.865C79.5266 31.9489 78.5653 32.8386 77.5223 33.534C76.4997 34.2294 75.3339 34.5771 74.0249 34.5771C72.2251 34.5771 70.8855 33.759 70.006 32.1228C69.147 30.4866 68.7175 28.3698 68.7175 25.7723C68.7175 23.2771 69.0345 20.4342 69.6686 17.2437C70.323 14.0531 71.2741 11.3125 72.5217 9.02182C73.7897 6.73115 75.293 5.58582 77.0314 5.58582C78.0131 5.58582 78.7801 6.04599 79.3323 6.96635C79.905 7.86626 80.1913 9.16498 80.1913 10.8625C80.1913 13.2964 79.5164 16.1188 78.1665 19.3298C76.8167 22.5408 74.9862 25.7212 72.6751 28.8709C72.8182 29.7094 73.0534 30.3127 73.3807 30.6809C73.7079 31.0286 74.1374 31.2024 74.6692 31.2024C75.5077 31.2024 76.244 30.9672 76.878 30.4968C77.5121 30.006 78.3199 29.1776 79.3016 28.0119C79.5471 27.7255 79.8232 27.5824 80.13 27.5824ZM76.3565 8.623C75.8861 8.623 75.3543 9.47177 74.7612 11.1693C74.1681 12.8669 73.6465 14.9735 73.1966 17.4891C72.7466 20.0047 72.5012 22.4181 72.4603 24.7292C73.9124 22.3363 75.068 19.9434 75.927 17.5505C76.786 15.1371 77.2155 12.9384 77.2155 10.9546C77.2155 9.40019 76.9292 8.623 76.3565 8.623Z" fill="#F97010"/>
<path d="M64.6923 34.5769C63.3629 34.5769 62.3914 34.1065 61.7779 33.1657C61.1847 32.2249 60.8882 30.9773 60.8882 29.4229C60.8882 28.5026 61.0007 27.3266 61.2257 25.8949C61.4711 24.4428 61.7779 23.0929 62.146 21.8453C62.3301 21.1908 62.5755 20.7409 62.8823 20.4955C63.1891 20.25 63.6799 20.1273 64.3549 20.1273C65.3979 20.1273 65.9195 20.475 65.9195 21.1704C65.9195 21.6817 65.7252 22.8679 65.3366 24.7291C64.8457 26.9789 64.6003 28.5026 64.6003 29.3002C64.6003 29.9138 64.6821 30.3842 64.8457 30.7114C65.0093 31.0387 65.2854 31.2023 65.674 31.2023C66.0422 31.2023 66.5024 30.9466 67.0546 30.4353C67.6068 29.924 68.3431 29.1161 69.2634 28.0117C69.5089 27.7254 69.785 27.5822 70.0918 27.5822C70.3576 27.5822 70.5622 27.7049 70.7053 27.9504C70.869 28.1958 70.9508 28.5333 70.9508 28.9628C70.9508 29.7808 70.7565 30.4149 70.3679 30.8648C68.3431 33.3396 66.4512 34.5769 64.6923 34.5769Z" fill="#F97010"/>
<path d="M40.2338 34.5769C39.4566 34.5769 38.9044 34.1679 38.5771 33.3498C38.2703 32.5317 38.1169 31.2227 38.1169 29.4229C38.1169 26.7641 38.4953 24.2382 39.2521 21.8453C39.4361 21.2522 39.7327 20.8227 40.1417 20.5568C40.5712 20.2705 41.1643 20.1273 41.9211 20.1273C42.3301 20.1273 42.6165 20.1784 42.7801 20.2807C42.9437 20.383 43.0255 20.5773 43.0255 20.8636C43.0255 21.1908 42.8721 21.9271 42.5653 23.0725C42.3608 23.8906 42.1972 24.6064 42.0745 25.22C41.9518 25.8131 41.8495 26.5596 41.7677 27.4595C42.3199 25.8642 42.9744 24.5144 43.7311 23.4099C44.5083 22.3055 45.2957 21.4874 46.0934 20.9556C46.9115 20.4034 47.6784 20.1273 48.3943 20.1273C49.1101 20.1273 49.6112 20.2909 49.8975 20.6182C50.2043 20.9454 50.3577 21.4465 50.3577 22.1214C50.3577 22.7759 50.1634 23.9621 49.7748 25.6801C49.6112 26.4164 49.4987 26.9686 49.4373 27.3368C50.46 24.8211 51.5951 22.9907 52.8427 21.8453C54.0903 20.7 55.256 20.1273 56.34 20.1273C57.6694 20.1273 58.3341 20.792 58.3341 22.1214C58.3341 22.9191 58.1091 24.361 57.6592 26.4471C57.2706 28.2265 57.0763 29.4025 57.0763 29.9751C57.0763 30.7932 57.3729 31.2023 57.966 31.2023C58.375 31.2023 58.8557 30.9569 59.4079 30.466C59.9805 29.9547 60.7373 29.1366 61.6781 28.0117C61.9235 27.7254 62.1996 27.5822 62.5064 27.5822C62.7723 27.5822 62.9768 27.7049 63.12 27.9504C63.2836 28.1958 63.3654 28.5333 63.3654 28.9628C63.3654 29.7808 63.1711 30.4149 62.7825 30.8648C61.9031 31.9488 60.952 32.8385 59.9294 33.5339C58.9272 34.2292 57.7819 34.5769 56.4934 34.5769C55.4503 34.5769 54.6629 34.2804 54.1312 33.6872C53.5994 33.0737 53.3335 32.1942 53.3335 31.0489C53.3335 30.4762 53.4767 29.4536 53.763 27.981C54.0289 26.6925 54.1618 25.8029 54.1618 25.312C54.1618 24.9848 54.0494 24.8211 53.8244 24.8211C53.5585 24.8211 53.1801 25.1688 52.6893 25.8642C52.1984 26.5391 51.7076 27.439 51.2167 28.5639C50.7258 29.6888 50.327 30.875 50.0202 32.1226C49.7953 33.1044 49.5294 33.7588 49.2226 34.0861C48.9363 34.4133 48.4658 34.5769 47.8114 34.5769C47.1364 34.5769 46.6251 34.2599 46.2774 33.6259C45.9502 32.9714 45.7866 32.184 45.7866 31.2636C45.7866 30.4865 45.8889 29.3616 46.0934 27.889C46.257 26.58 46.3388 25.721 46.3388 25.312C46.3388 24.9848 46.2263 24.8211 46.0013 24.8211C45.6946 24.8211 45.306 25.1893 44.8356 25.9256C44.3651 26.6619 43.905 27.6027 43.455 28.748C43.0255 29.8933 42.6778 31.0182 42.4119 32.1226C42.187 33.0839 41.9211 33.7384 41.6143 34.0861C41.328 34.4133 40.8678 34.5769 40.2338 34.5769Z" fill="#F97010"/>
<path d="M27.3842 34.577C26.1162 34.577 25.1038 34.1168 24.347 33.1965C23.5903 32.2761 23.2119 31.0694 23.2119 29.5764C23.2119 27.9402 23.5903 26.3961 24.347 24.9439C25.1038 23.4714 26.1059 22.2953 27.3535 21.4159C28.6216 20.516 29.9612 20.066 31.3724 20.066C31.8224 20.066 32.1189 20.1581 32.2621 20.3421C32.4257 20.5058 32.5587 20.8126 32.6609 21.2625C33.0904 21.1807 33.5404 21.1398 34.0108 21.1398C35.0129 21.1398 35.514 21.4977 35.514 22.2135C35.514 22.643 35.3606 23.6657 35.0538 25.2814C34.5834 27.6334 34.3482 29.2696 34.3482 30.19C34.3482 30.4968 34.4198 30.7422 34.563 30.9263C34.7266 31.1103 34.9311 31.2024 35.1766 31.2024C35.5652 31.2024 36.0356 30.9569 36.5878 30.4661C37.14 29.9548 37.8865 29.1367 38.8273 28.0118C39.0727 27.7255 39.3488 27.5823 39.6556 27.5823C39.9215 27.5823 40.126 27.705 40.2692 27.9504C40.4328 28.1959 40.5146 28.5333 40.5146 28.9628C40.5146 29.7809 40.3203 30.4149 39.9317 30.8649C39.0932 31.908 38.2035 32.7874 37.2627 33.5033C36.3219 34.2191 35.4118 34.577 34.5323 34.577C33.8574 34.577 33.2336 34.352 32.6609 33.9021C32.1087 33.4317 31.6894 32.7976 31.4031 32C30.3396 33.718 28.9999 34.577 27.3842 34.577ZM28.4886 31.4785C28.9386 31.4785 29.3681 31.2126 29.7771 30.6808C30.1862 30.1491 30.4827 29.4435 30.6668 28.564L31.8019 22.9191C30.9429 22.9396 30.1453 23.2668 29.409 23.9009C28.6932 24.5144 28.1205 25.3325 27.691 26.3551C27.2615 27.3778 27.0467 28.4617 27.0467 29.6071C27.0467 30.2411 27.1695 30.7115 27.4149 31.0183C27.6808 31.3251 28.0387 31.4785 28.4886 31.4785Z" fill="#F97010"/>
<path d="M83.5141 18.6469L83.5123 18.6462L83.5067 18.6431C83.4738 18.6252 83.4413 18.6068 83.409 18.5879C83.0206 18.3587 82.6577 18.0895 82.3262 17.7847C81.7392 17.2408 81.1172 16.4336 81.1172 15.4394C81.1172 14.6976 81.7458 14.1093 82.5045 14.1093C82.7155 14.1082 82.9239 14.1545 83.1144 14.2445C83.3048 14.3345 83.4724 14.466 83.6046 14.6292C83.7369 14.4659 83.9045 14.3344 84.095 14.2444C84.2855 14.1544 84.494 14.1082 84.705 14.1093C85.4635 14.1093 86.0921 14.6976 86.0921 15.4394C86.0921 16.4338 85.4701 17.241 84.8831 17.7845C84.5516 18.0893 84.1887 18.3585 83.8003 18.5876C83.768 18.6066 83.7354 18.6251 83.7026 18.6431L83.697 18.6462L83.6952 18.6472L83.6944 18.6474C83.6668 18.662 83.6359 18.6696 83.6046 18.6696C83.5733 18.6696 83.5425 18.662 83.5148 18.6474L83.5141 18.6469Z" fill="#F97010"/>
<path d="M65.6874 18.6469L65.6856 18.6462L65.68 18.6431C65.6472 18.6252 65.6146 18.6068 65.5823 18.5879C65.194 18.3587 64.831 18.0895 64.4996 17.7847C63.9125 17.2408 63.2905 16.4336 63.2905 15.4394C63.2905 14.6976 63.9192 14.1093 64.6779 14.1093C64.8888 14.1082 65.0973 14.1545 65.2877 14.2445C65.4782 14.3345 65.6458 14.466 65.778 14.6292C65.9102 14.4659 66.0779 14.3344 66.2684 14.2444C66.4589 14.1544 66.6674 14.1082 66.8783 14.1093C67.6368 14.1093 68.2654 14.6976 68.2654 15.4394C68.2654 16.4338 67.6434 17.241 67.0564 17.7845C66.7249 18.0893 66.362 18.3585 65.9737 18.5876C65.9414 18.6066 65.9088 18.6251 65.8759 18.6431L65.8703 18.6462L65.8685 18.6472L65.8678 18.6474C65.8401 18.662 65.8093 18.6696 65.778 18.6696C65.7467 18.6696 65.7158 18.662 65.6882 18.6474L65.6874 18.6469Z" fill="#F97010"/>
<path fill-rule="evenodd" clip-rule="evenodd" d="M31.4904 4.27405C33.5527 3.86079 34.6774 4.19593 35.2027 4.54875C35.6772 4.86748 35.8592 5.32333 35.8068 5.84106C35.703 6.86623 34.4555 8.53675 31.5241 7.88494C30.1474 7.57883 28.798 7.29584 27.483 7.05519C28.7276 5.49513 30.0563 4.5614 31.4904 4.27405ZM30.8136 11.0963C28.9723 10.6869 27.2255 10.3297 25.5706 10.0627C24.6062 11.9059 23.7638 14.0413 23.0005 16.3054C24.06 17.1732 24.7399 17.4948 25.2604 17.4003C25.9556 17.2741 26.1695 16.7252 26.1093 16.5786C25.8285 15.8949 26.1098 15.2755 26.8595 15.0195C27.6093 14.7634 28.4447 15.11 28.7256 15.7937C29.4075 17.4536 28.3759 19.1471 26.7725 19.8351C25.4528 20.4013 23.7721 19.9023 22.1764 18.8865C21.8787 19.8665 21.592 20.8583 21.3132 21.85C21.0284 22.8635 20.7505 23.8826 20.4766 24.8873L20.4766 24.8873C19.524 28.3817 18.6191 31.7006 17.632 33.9974C15.7358 38.4094 12.5522 40.7307 9.25732 41.1483C6.02735 41.5576 2.41255 39.7249 0.836228 36.9437C-0.405885 34.7521 -0.0981353 32.7793 0.684824 31.4289C1.49639 30.0292 3.41469 28.767 6.09451 28.6428C6.9912 28.6012 7.68056 29.3412 7.57725 30.0514C7.53239 30.3598 7.61773 30.6103 7.68453 30.8064C7.81244 31.1819 7.87235 31.3578 6.81985 31.3578C5.50846 31.3578 3.39236 31.5972 2.94908 32.7793C2.43764 34.1431 3.10062 35.2418 3.64995 35.9805C4.70204 37.3954 6.83053 38.1402 8.84583 37.8848C10.7962 37.6376 12.8067 36.043 14.3253 32.5097C15.06 30.8001 15.6666 28.5435 16.3864 25.8653C16.5356 25.3102 16.6896 24.7371 16.8507 24.147C17.1359 23.1019 17.4324 22.0156 17.7455 20.9016C18.0701 19.7467 18.4192 18.5504 18.7937 17.3477C18.4921 17.3639 18.1645 17.3987 17.8085 17.4429C16.849 17.5622 16.4202 17.7715 15.6192 18.5147C15.0581 19.0354 14.596 19.4288 14.0144 19.1395C13.35 18.8091 13.3926 18.1446 13.8071 17.6885C14.0355 17.4373 14.2201 17.2081 14.3903 16.9966C14.9927 16.2484 15.4151 15.7238 16.9595 15.2433C17.7389 15.0008 18.6607 14.8511 19.5927 14.8991C20.2542 12.97 20.9843 11.0867 21.7876 9.39712C18.6377 9.15828 16.3547 9.68237 14.2189 10.7174C12.2714 11.6612 11.3876 12.8677 11.0931 13.9379C10.7958 15.0181 11.0248 16.2197 11.8039 17.3132C12.3305 18.0524 12.1598 19.0796 11.4225 19.6075C10.6852 20.1355 9.66059 19.9643 9.13395 19.2251C7.86234 17.4404 7.33429 15.2283 7.93016 13.0631C8.52876 10.8879 10.1883 9.01721 12.7909 7.75591C16.039 6.18178 19.5287 6.0314 23.5496 6.49509C25.2814 3.82321 27.8332 1.6524 30.8473 1.04844C33.3995 0.537028 35.5185 0.801436 37.029 1.81601C38.5902 2.86468 39.236 4.54407 39.0711 6.17307C38.7404 9.44133 35.3734 12.1102 30.8136 11.0963Z" fill="#F97010"/>
<path fill-rule="evenodd" clip-rule="evenodd" d="M30.1001 21.4339C30.493 22.1323 30.2453 23.017 29.5468 23.4099C18.9893 29.6121 11.4301 31.799 6.744 31.3268C6.0221 31.2541 4.7171 30.8975 4.65735 30.0984C4.5976 29.2992 4.64169 28.7362 5.82 28.6605C13.0603 28.1956 20.3366 25.9801 28.1241 20.8806C28.8225 20.4877 29.7072 20.7354 30.1001 21.4339Z" fill="#F97010"/>
</svg>
