<svg width="40" height="40" viewBox="0 0 40 40" fill="none" xmlns="http://www.w3.org/2000/svg">
<path opacity="0.4" d="M20.1443 36.6667C19.9379 36.6667 19.7316 36.6193 19.5453 36.5228L13.5435 33.416C11.8404 32.5335 10.5082 31.5431 9.46788 30.3893C7.19098 27.8659 5.92417 24.6267 5.90403 21.2665L5.83356 10.2071C5.82517 8.9307 6.64902 7.78505 7.88059 7.35359L18.901 3.51131C19.5554 3.27761 20.2853 3.27434 20.9514 3.49987L32.0137 7.2114C33.252 7.62488 34.0893 8.76237 34.096 10.0371L34.1665 21.1047C34.1883 24.46 32.9651 27.7123 30.7234 30.2634C29.6949 31.4336 28.3744 32.4387 26.6881 33.3376L20.74 36.5147C20.5554 36.6144 20.3507 36.665 20.1443 36.6667Z" fill="#F97010"/>
<path d="M18.8655 23.8682C18.5434 23.8698 18.2212 23.7538 17.9729 23.5152L14.7782 20.4427C14.2849 19.9654 14.2798 19.1908 14.7681 18.7103C15.2564 18.2282 16.0534 18.2233 16.5484 18.6988L18.8471 20.9084L24.4596 15.3746C24.9496 14.8925 25.7466 14.8876 26.2399 15.3632C26.7348 15.8404 26.7399 16.6167 26.2516 17.0956L19.7531 23.5037C19.5082 23.7456 19.1877 23.8665 18.8655 23.8682Z" fill="#F97010"/>
</svg>
