<svg width="40" height="40" viewBox="0 0 40 40" fill="none" xmlns="http://www.w3.org/2000/svg">
<path d="M19.915 24.2332C14.1651 24.2332 9.31348 25.1728 9.31348 28.799C9.31348 32.4268 14.1964 33.3333 19.915 33.3333C25.665 33.3333 30.5166 32.3938 30.5166 28.7675C30.5166 25.1398 25.6337 24.2332 19.915 24.2332Z" fill="#F97010"/>
<path opacity="0.4" d="M19.9149 20.7784C23.8084 20.7784 26.9304 17.6385 26.9304 13.7225C26.9304 9.80513 23.8084 6.66669 19.9149 6.66669C16.0214 6.66669 12.8994 9.80513 12.8994 13.7225C12.8994 17.6385 16.0214 20.7784 19.9149 20.7784Z" fill="#F97010"/>
<path opacity="0.4" d="M35.1466 15.3654C36.1539 11.403 33.2006 7.8443 29.4399 7.8443C29.031 7.8443 28.64 7.88933 28.258 7.96587C28.2072 7.97788 28.1505 8.0034 28.1207 8.04843C28.0864 8.10546 28.1117 8.18201 28.149 8.23154C29.2787 9.82552 29.9279 11.7662 29.9279 13.8495C29.9279 15.8457 29.3325 17.7069 28.2878 19.2513C28.1804 19.4104 28.2759 19.6251 28.4654 19.6581C28.7281 19.7046 28.9967 19.7286 29.2713 19.7361C32.0097 19.8082 34.4676 18.0356 35.1466 15.3654Z" fill="#F97010"/>
<path d="M38.0152 24.6949C37.5138 23.6203 36.3035 22.8833 34.4634 22.5216C33.5949 22.3085 31.2445 22.0083 29.0582 22.0488C29.0253 22.0533 29.0074 22.0758 29.0045 22.0908C29 22.1119 29.0089 22.1479 29.0522 22.1704C30.0625 22.6732 33.968 24.8601 33.477 29.4724C33.4561 29.672 33.6158 29.8446 33.8143 29.8146C34.7753 29.6765 37.2481 29.1422 38.0152 27.4777C38.439 26.5981 38.439 25.576 38.0152 24.6949Z" fill="#F97010"/>
<path opacity="0.4" d="M11.7411 7.96636C11.3606 7.88831 10.9681 7.84479 10.5592 7.84479C6.79852 7.84479 3.84518 11.4035 4.854 15.3659C5.53152 18.0361 7.9894 19.8087 10.7278 19.7366C11.0024 19.7291 11.2725 19.7036 11.5337 19.6586C11.7232 19.6256 11.8187 19.4109 11.7113 19.2518C10.6667 17.7059 10.0712 15.8462 10.0712 13.85C10.0712 11.7652 10.7219 9.82451 11.8516 8.23203C11.8874 8.1825 11.9143 8.10595 11.8784 8.04891C11.8486 8.00238 11.7934 7.97837 11.7411 7.96636Z" fill="#F97010"/>
<path d="M5.53576 22.5211C3.69571 22.8828 2.48692 23.6198 1.98549 24.6944C1.56017 25.5755 1.56017 26.5976 1.98549 27.4787C2.75255 29.1417 5.22536 29.6775 6.18642 29.8141C6.3849 29.8441 6.54309 29.673 6.5222 29.4719C6.03122 24.861 9.93667 22.6742 10.9485 22.1714C10.9903 22.1474 10.9992 22.1129 10.9947 22.0903C10.9917 22.0753 10.9753 22.0528 10.9425 22.0498C8.75474 22.0078 6.4058 22.308 5.53576 22.5211Z" fill="#F97010"/>
</svg>
