<svg width="160" height="66" viewBox="0 0 160 66" fill="none" xmlns="http://www.w3.org/2000/svg">
<path d="M146.376 55.1665C144.473 55.1665 142.92 54.4152 141.718 52.9125C140.549 51.4099 139.965 49.4398 139.965 47.0022C139.965 44.3309 140.583 41.8098 141.818 39.439C143.054 37.0348 144.69 35.1148 146.727 33.6789C148.797 32.2097 150.984 31.4751 153.288 31.4751C154.023 31.4751 154.507 31.6254 154.741 31.9259C155.008 32.193 155.225 32.6939 155.392 33.4285C156.026 33.2949 156.728 33.2282 157.496 33.2282C158.297 33.2282 158.915 33.4285 159.349 33.8292C159.783 34.2299 160 34.7976 160 35.5322C160 36.3002 159.833 37.6359 159.499 39.5392C159.132 41.5761 158.848 43.5295 158.648 45.3994C158.447 47.236 158.347 49.3062 158.347 51.6103C158.347 52.8792 158.08 53.7974 157.546 54.3651C157.045 54.8994 156.21 55.1665 155.041 55.1665C153.906 55.1665 153.055 54.8994 152.487 54.3651C151.953 53.7974 151.686 52.8959 151.686 51.6604L151.736 50.859C150.701 53.7306 148.914 55.1665 146.376 55.1665ZM148.33 50.1077C149.265 50.1077 150.116 49.4565 150.884 48.1542C151.652 46.852 152.337 44.5312 152.938 41.1921L153.889 36.1332C152.52 36.1666 151.251 36.7009 150.083 37.736C148.914 38.7378 147.979 40.0735 147.278 41.743C146.577 43.4126 146.226 45.1824 146.226 47.0523C146.226 48.0541 146.41 48.8221 146.777 49.3563C147.178 49.8572 147.695 50.1077 148.33 50.1077Z" fill="white"/>
<path d="M134.395 55.1665C132.224 55.1665 130.638 54.3985 129.637 52.8625C128.668 51.3265 128.184 49.2896 128.184 46.7518C128.184 45.2492 128.368 43.3292 128.735 40.9918C129.136 38.621 129.637 36.4171 130.238 34.3802C130.538 33.3117 130.939 32.5771 131.44 32.1764C131.941 31.7757 132.742 31.5753 133.844 31.5753C135.547 31.5753 136.398 32.143 136.398 33.2783C136.398 34.1131 136.081 36.0498 135.447 39.0884C134.645 42.7615 134.245 45.2492 134.245 46.5515C134.245 47.5532 134.378 48.3212 134.645 48.8555C134.913 49.3898 135.363 49.6569 135.998 49.6569C136.599 49.6569 137.35 49.2395 138.252 48.4047C139.153 47.5699 140.355 46.251 141.858 44.4478C142.259 43.9803 142.709 43.7466 143.21 43.7466C143.644 43.7466 143.978 43.9469 144.212 44.3476C144.479 44.7483 144.613 45.2993 144.613 46.0005C144.613 47.3362 144.296 48.3713 143.661 49.1059C140.355 53.1463 137.267 55.1665 134.395 55.1665Z" fill="white"/>
<path d="M130.824 43.7466C131.259 43.7466 131.592 43.947 131.826 44.3477C132.093 44.7484 132.227 45.2993 132.227 46.0005C132.227 47.3362 131.91 48.3713 131.275 49.106C129.839 50.8757 128.27 52.3283 126.567 53.4636C124.897 54.5989 122.994 55.1666 120.857 55.1666C117.919 55.1666 115.731 53.8309 114.296 51.1595C112.893 48.4882 112.192 45.0322 112.192 40.7914C112.192 36.7177 112.709 32.0762 113.745 26.8671C114.813 21.658 116.366 17.1835 118.403 13.4437C120.473 9.7038 122.927 7.83386 125.766 7.83386C127.368 7.83386 128.621 8.58517 129.522 10.0878C130.457 11.557 130.925 13.6774 130.925 16.4489C130.925 20.4225 129.823 25.0306 127.619 30.2731C125.415 35.5156 122.426 40.708 118.653 45.8503C118.887 47.2193 119.271 48.2044 119.805 48.8054C120.339 49.3731 121.041 49.6569 121.909 49.6569C123.278 49.6569 124.48 49.2729 125.515 48.5049C126.55 47.7035 127.869 46.3511 129.472 44.4478C129.873 43.9803 130.324 43.7466 130.824 43.7466ZM124.664 12.7925C123.896 12.7925 123.027 14.1783 122.059 16.9498C121.091 19.7213 120.239 23.1606 119.505 27.2678C118.77 31.375 118.369 35.3152 118.303 39.0885C120.673 35.1816 122.56 31.2748 123.962 27.368C125.365 23.4278 126.066 19.8382 126.066 16.5992C126.066 14.0614 125.599 12.7925 124.664 12.7925Z" fill="white"/>
<path d="M105.62 55.1665C103.45 55.1665 101.864 54.3985 100.862 52.8625C99.8936 51.3265 99.4094 49.2896 99.4094 46.7518C99.4094 45.2492 99.5931 43.3292 99.9604 40.9918C100.361 38.621 100.862 36.4171 101.463 34.3802C101.764 33.3117 102.164 32.5771 102.665 32.1764C103.166 31.7757 103.967 31.5753 105.069 31.5753C106.772 31.5753 107.624 32.143 107.624 33.2783C107.624 34.1131 107.307 36.0498 106.672 39.0884C105.871 42.7615 105.47 45.2492 105.47 46.5515C105.47 47.5532 105.604 48.3212 105.871 48.8555C106.138 49.3898 106.589 49.6569 107.223 49.6569C107.824 49.6569 108.575 49.2395 109.477 48.4047C110.379 47.5699 111.581 46.251 113.083 44.4478C113.484 43.9803 113.935 43.7466 114.436 43.7466C114.87 43.7466 115.204 43.9469 115.437 44.3476C115.705 44.7483 115.838 45.2993 115.838 46.0005C115.838 47.3362 115.521 48.3713 114.886 49.1059C111.581 53.1463 108.492 55.1665 105.62 55.1665Z" fill="white"/>
<path d="M65.688 55.1665C64.4191 55.1665 63.5175 54.4987 62.9832 53.163C62.4824 51.8274 62.2319 49.6903 62.2319 46.7518C62.2319 42.4109 62.8497 38.287 64.0852 34.3802C64.3857 33.4119 64.8699 32.7106 65.5377 32.2765C66.2389 31.8091 67.2073 31.5753 68.4428 31.5753C69.1106 31.5753 69.5781 31.6588 69.8452 31.8258C70.1124 31.9927 70.2459 32.3099 70.2459 32.7774C70.2459 33.3117 69.9955 34.5138 69.4946 36.3837C69.1607 37.7194 68.8936 38.8881 68.6932 39.8898C68.4929 40.8582 68.3259 42.077 68.1924 43.5462C69.0939 40.9417 70.1625 38.7378 71.398 36.9347C72.6668 35.1315 73.9524 33.7959 75.2547 32.9277C76.5904 32.0261 77.8425 31.5753 79.0112 31.5753C80.18 31.5753 80.9981 31.8424 81.4655 32.3767C81.9664 32.911 82.2169 33.7291 82.2169 34.831C82.2169 35.8995 81.8996 37.8363 81.2652 40.6412C80.9981 41.8433 80.8144 42.7448 80.7142 43.3459C82.3838 39.2387 84.237 36.2502 86.2739 34.3802C88.3108 32.5103 90.2141 31.5753 91.9839 31.5753C94.1544 31.5753 95.2396 32.6605 95.2396 34.831C95.2396 36.1333 94.8723 38.4874 94.1377 41.8933C93.5032 44.7984 93.186 46.7184 93.186 47.6534C93.186 48.9891 93.6702 49.6569 94.6385 49.6569C95.3064 49.6569 96.0911 49.2562 96.9927 48.4548C97.9276 47.62 99.1631 46.2843 100.699 44.4478C101.1 43.9803 101.551 43.7466 102.052 43.7466C102.486 43.7466 102.82 43.9469 103.053 44.3476C103.32 44.7483 103.454 45.2993 103.454 46.0005C103.454 47.3362 103.137 48.3713 102.502 49.1059C101.066 50.8757 99.5137 52.3282 97.8441 53.4636C96.208 54.5989 94.338 55.1665 92.2344 55.1665C90.5314 55.1665 89.2458 54.6824 88.3776 53.714C87.5094 52.7122 87.0753 51.2764 87.0753 49.4065C87.0753 48.4715 87.3091 46.8019 87.7766 44.3977C88.2107 42.294 88.4277 40.8415 88.4277 40.0401C88.4277 39.5058 88.244 39.2387 87.8767 39.2387C87.4426 39.2387 86.8249 39.8064 86.0235 40.9417C85.2221 42.0436 84.4207 43.5128 83.6193 45.3494C82.8179 47.1859 82.1668 49.1226 81.6659 51.1595C81.2986 52.7623 80.8645 53.8309 80.3636 54.3651C79.8961 54.8994 79.1281 55.1665 78.0596 55.1665C76.9577 55.1665 76.1229 54.649 75.5552 53.6138C75.0209 52.5453 74.7538 51.2597 74.7538 49.7571C74.7538 48.4882 74.9208 46.6517 75.2547 44.2475C75.5218 42.1104 75.6554 40.7079 75.6554 40.0401C75.6554 39.5058 75.4717 39.2387 75.1044 39.2387C74.6035 39.2387 73.9691 39.8398 73.2011 41.0419C72.4331 42.244 71.6818 43.78 70.9472 45.6499C70.2459 47.5198 69.6783 49.3564 69.2442 51.1595C68.8769 52.7289 68.4428 53.7975 67.9419 54.3651C67.4744 54.8994 66.7231 55.1665 65.688 55.1665Z" fill="white"/>
<path d="M44.7091 55.1665C42.6388 55.1665 40.9859 54.4152 39.7505 52.9125C38.515 51.4099 37.8972 49.4398 37.8972 47.0022C37.8972 44.3309 38.515 41.8098 39.7505 39.439C40.9859 37.0348 42.6221 35.1148 44.659 33.6789C46.7293 32.2097 48.9165 31.4751 51.2205 31.4751C51.9551 31.4751 52.4393 31.6254 52.673 31.9259C52.9402 32.193 53.1572 32.6939 53.3242 33.4285C54.0254 33.2949 54.76 33.2282 55.528 33.2282C57.1642 33.2282 57.9823 33.8125 57.9823 34.9812C57.9823 35.6824 57.7319 37.352 57.231 39.99C56.463 43.83 56.079 46.5013 56.079 48.004C56.079 48.5048 56.1959 48.9056 56.4296 49.2061C56.6967 49.5066 57.0306 49.6569 57.4313 49.6569C58.0658 49.6569 58.8338 49.2562 59.7354 48.4548C60.6369 47.62 61.8557 46.2843 63.3918 44.4478C63.7925 43.9803 64.2432 43.7465 64.7441 43.7465C65.1782 43.7465 65.5121 43.9469 65.7459 44.3476C66.013 44.7483 66.1466 45.2992 66.1466 46.0005C66.1466 47.3361 65.8294 48.3713 65.1949 49.1059C63.8259 50.8089 62.3733 52.2447 60.8373 53.4134C59.3013 54.5821 57.8154 55.1665 56.3795 55.1665C55.2776 55.1665 54.2591 54.7992 53.3242 54.0646C52.4226 53.2966 51.7381 52.2614 51.2706 50.9591C49.5342 53.764 47.3471 55.1665 44.7091 55.1665ZM46.5123 50.1077C47.2469 50.1077 47.9481 49.6736 48.6159 48.8054C49.2838 47.9372 49.768 46.7852 50.0685 45.3493L51.9217 36.1332C50.5193 36.1666 49.217 36.7009 48.0149 37.736C46.8462 38.7378 45.9112 40.0735 45.21 41.743C44.5088 43.4126 44.1582 45.1824 44.1582 47.0523C44.1582 48.0874 44.3585 48.8555 44.7592 49.3563C45.1933 49.8572 45.7777 50.1077 46.5123 50.1077Z" fill="white"/>
<path d="M136.35 29.1583L136.347 29.1571L136.337 29.1521C136.284 29.1228 136.231 29.0927 136.178 29.0619C135.544 28.6878 134.951 28.2483 134.41 27.7507C133.452 26.8626 132.436 25.5447 132.436 23.9215C132.436 22.7104 133.463 21.7499 134.701 21.7499C135.046 21.7482 135.386 21.8237 135.697 21.9706C136.008 22.1176 136.282 22.3323 136.497 22.5987C136.713 22.3322 136.987 22.1175 137.298 21.9705C137.609 21.8236 137.949 21.7482 138.294 21.7499C139.532 21.7499 140.559 22.7104 140.559 23.9215C140.559 25.5451 139.543 26.863 138.585 27.7503C138.043 28.2479 137.451 28.6874 136.817 29.0615C136.764 29.0925 136.711 29.1227 136.657 29.1521L136.648 29.1571L136.645 29.1587L136.644 29.1591C136.599 29.1829 136.549 29.1953 136.497 29.1953C136.446 29.1953 136.396 29.1829 136.351 29.1591L136.35 29.1583Z" fill="white"/>
<path d="M107.245 29.1583L107.242 29.1571L107.233 29.1521C107.179 29.1228 107.126 29.0927 107.073 29.0619C106.439 28.6878 105.846 28.2483 105.305 27.7507C104.347 26.8626 103.331 25.5447 103.331 23.9215C103.331 22.7104 104.358 21.7499 105.596 21.7499C105.941 21.7482 106.281 21.8237 106.592 21.9706C106.903 22.1176 107.177 22.3323 107.392 22.5987C107.608 22.3322 107.882 22.1175 108.193 21.9705C108.504 21.8236 108.844 21.7482 109.189 21.7499C110.427 21.7499 111.454 22.7104 111.454 23.9215C111.454 25.5451 110.438 26.863 109.48 27.7503C108.938 28.2479 108.346 28.6874 107.712 29.0615C107.659 29.0925 107.606 29.1227 107.552 29.1521L107.543 29.1571L107.54 29.1587L107.539 29.1591C107.494 29.1829 107.444 29.1953 107.392 29.1953C107.341 29.1953 107.291 29.1829 107.246 29.1591L107.245 29.1583Z" fill="white"/>
<path fill-rule="evenodd" clip-rule="evenodd" d="M51.4129 5.69233C54.78 5.01763 56.6162 5.56479 57.4738 6.14082C58.2485 6.6612 58.5456 7.40544 58.4601 8.25071C58.2907 9.92447 56.2539 12.6518 51.4679 11.5877C49.2203 11.0879 47.0172 10.6259 44.8703 10.233C46.9023 7.68592 49.0716 6.16148 51.4129 5.69233ZM50.308 16.8307C47.3018 16.1623 44.4498 15.5791 41.748 15.1433C40.1735 18.1525 38.7981 21.6389 37.5519 25.3355C39.2816 26.7523 40.3917 27.2771 41.2413 27.1229C42.3764 26.9169 42.7257 26.0207 42.6273 25.7813C42.1688 24.6652 42.6281 23.654 43.8522 23.2359C45.0763 22.8178 46.4403 23.3837 46.8988 24.4999C48.0121 27.21 46.3279 29.9749 43.7101 31.0981C41.5555 32.0225 38.8116 31.2079 36.2065 29.5495C35.7203 31.1494 35.2523 32.7687 34.7971 34.3878C34.332 36.0425 33.8784 37.7064 33.4312 39.3466C31.8759 45.0518 30.3986 50.4705 28.787 54.2203C25.6911 61.4235 20.4933 65.2134 15.114 65.8951C9.84058 66.5634 3.93886 63.5712 1.36527 59.0305C-0.66267 55.4525 -0.160221 52.2315 1.11808 50.0269C2.44309 47.7416 5.57501 45.6809 9.95022 45.4781C11.4142 45.4102 12.5397 46.6183 12.371 47.7779C12.2978 48.2813 12.4371 48.6904 12.5462 49.0105C12.755 49.6236 12.8528 49.9107 11.1345 49.9107C8.99342 49.9107 5.53856 50.3016 4.81483 52.2315C3.97982 54.4582 5.06224 56.2519 5.9591 57.4581C7.67681 59.7681 11.1519 60.9841 14.4422 60.5671C17.6265 60.1635 20.9089 57.5601 23.3882 51.7914C24.5878 49.0003 25.5781 45.3159 26.7533 40.9433C26.9969 40.0371 27.2484 39.1014 27.5113 38.1379C27.977 36.4318 28.461 34.6582 28.9723 32.8393C29.5023 30.9539 30.0721 29.0006 30.6837 27.0371C30.1912 27.0636 29.6562 27.1203 29.075 27.1925C27.5085 27.3873 26.8084 27.7289 25.5007 28.9424C24.5845 29.7925 23.83 30.4348 22.8806 29.9625C21.7958 29.423 21.8653 28.3381 22.5422 27.5935C22.915 27.1834 23.2164 26.8091 23.4943 26.4639C24.4778 25.2423 25.1674 24.3858 27.6889 23.6012C28.9613 23.2054 30.4665 22.9609 31.9882 23.0393C33.0681 19.8898 34.2601 16.815 35.5717 14.0565C30.429 13.6666 26.7016 14.5222 23.2145 16.2122C20.035 17.753 18.5921 19.7227 18.1112 21.4701C17.6258 23.2337 17.9997 25.1955 19.2717 26.9808C20.1315 28.1875 19.8527 29.8646 18.649 30.7266C17.4452 31.5886 15.7724 31.3091 14.9126 30.1023C12.8365 27.1884 11.9744 23.5768 12.9472 20.0418C13.9245 16.4905 16.6339 13.4363 20.8831 11.377C26.1862 8.80699 31.8836 8.56148 38.4483 9.31852C41.2758 4.95626 45.4421 1.41209 50.363 0.426033C54.5299 -0.408934 57.9895 0.0227526 60.4555 1.67921C63.0045 3.39131 64.0588 6.13318 63.7897 8.79277C63.2497 14.1287 57.7525 18.486 50.308 16.8307Z" fill="white"/>
<path fill-rule="evenodd" clip-rule="evenodd" d="M49.143 33.7084C49.7845 34.8487 49.38 36.2931 48.2397 36.9346C31.0029 47.0606 18.6614 50.6311 11.0106 49.8601C9.83198 49.7413 7.70137 49.1592 7.60382 47.8545C7.50627 46.5497 7.57824 45.6306 9.50202 45.507C21.3229 44.7479 33.2027 41.1307 45.9168 32.805C47.0572 32.1636 48.5016 32.568 49.143 33.7084Z" fill="white"/>
</svg>
